<svg xmlns="http://www.w3.org/2000/svg" xmlns:xlink="http://www.w3.org/1999/xlink" width="1366" zoomAndPan="magnify" viewBox="0 0 1024.5 576" height="768" preserveAspectRatio="xMidYMid meet" version="1.0"><defs><clipPath id="252c049de1"><path d="M 520 0.140625 L 1024 0.140625 L 1024 575.859375 L 520 575.859375 Z M 520 0.140625 " clip-rule="nonzero"/></clipPath></defs><g clip-path="url(#252c049de1)"><path fill="#3a4a6b" d="M 1170.292969 616.777344 C 1186.277344 606.808594 1197.832031 591.703125 1204.714844 574.300781 C 1219.144531 537.804688 1213.890625 496.582031 1207.339844 459.011719 C 1200.207031 418.085938 1191.003906 370.152344 1212.289062 331.78125 C 1223.003906 312.464844 1240.992188 299.574219 1257.0625 285.058594 C 1273.195312 270.488281 1285.589844 253.496094 1291.121094 232.222656 C 1302.386719 188.910156 1286.503906 144.621094 1260.277344 110.085938 C 1252.621094 100.144531 1244.320312 90.777344 1235.375 81.984375 C 1233.621094 70.25 1232.488281 58.464844 1230.851562 47.515625 C 1228.125 29.289062 1224.179688 10.890625 1215.234375 -5.40625 C 1213.058594 -9.300781 1210.621094 -13.023438 1207.921875 -16.574219 C 1205.222656 -20.125 1202.285156 -23.46875 1199.113281 -26.605469 C 1195.941406 -29.738281 1192.566406 -32.636719 1188.984375 -35.292969 C 1185.402344 -37.953125 1181.652344 -40.347656 1177.730469 -42.472656 C 1145.089844 -60.410156 1105.28125 -61.488281 1069.3125 -55.582031 C 1060.214844 -54.082031 1051.238281 -52.0625 1042.378906 -49.523438 C 1029.886719 -45.957031 1017.296875 -41.589844 1004.230469 -40.824219 C 978.847656 -39.332031 956.082031 -54.617188 933.714844 -64.457031 C 910.730469 -74.597656 887.203125 -83.269531 863.132812 -90.472656 C 839.066406 -97.675781 814.644531 -103.355469 789.867188 -107.511719 C 742.8125 -115.34375 693.691406 -118.125 647.082031 -106.046875 C 604.8125 -95.09375 566.953125 -70.972656 542.765625 -34.152344 C 537.070312 -25.617188 532.40625 -16.554688 528.769531 -6.960938 C 525.128906 2.628906 522.613281 12.507812 521.214844 22.667969 C 518.441406 44.109375 522.308594 65.40625 530.453125 85.3125 C 539.273438 106.871094 551.820312 126.511719 562.871094 146.9375 C 574.160156 167.910156 582.664062 189.960938 588.378906 213.085938 C 600.222656 260.3125 602.660156 309.191406 610.105469 357.164062 C 616.398438 397.695312 627.519531 437.199219 648.894531 472.539062 C 668.070312 504.246094 695.5 532.378906 731.097656 544.828125 C 751.367188 551.914062 772.84375 552.75 794.003906 550 C 818.28125 546.839844 841.859375 539.863281 866.105469 536.550781 C 871.804688 535.695312 877.535156 535.199219 883.296875 535.058594 C 889.058594 534.921875 894.804688 535.140625 900.539062 535.714844 C 906.273438 536.292969 911.949219 537.222656 917.566406 538.503906 C 923.183594 539.789062 928.699219 541.417969 934.117188 543.386719 C 955.148438 551.160156 974.355469 563.226562 993.03125 575.449219 C 1011.734375 587.691406 1030.085938 600.757812 1050.222656 610.59375 C 1069.441406 619.984375 1090.046875 626.960938 1111.421875 629.019531 C 1131.714844 630.976562 1152.800781 627.683594 1170.292969 616.777344 Z M 1170.292969 616.777344 " fill-opacity="1" fill-rule="nonzero"/></g></svg>