<svg xmlns="http://www.w3.org/2000/svg" xmlns:xlink="http://www.w3.org/1999/xlink" width="1366" zoomAndPan="magnify" viewBox="0 0 1024.5 576" height="768" preserveAspectRatio="xMidYMid meet" version="1.0"><defs><clipPath id="c40dab2a66"><path d="M 559 0.140625 L 1024 0.140625 L 1024 575.859375 L 559 575.859375 Z M 559 0.140625 " clip-rule="nonzero"/></clipPath><clipPath id="7d371c0846"><path d="M 576 0.140625 L 1024 0.140625 L 1024 575.859375 L 576 575.859375 Z M 576 0.140625 " clip-rule="nonzero"/></clipPath><clipPath id="0247f61657"><path d="M 112.429688 167.324219 L 403 167.324219 L 403 186.8125 L 112.429688 186.8125 Z M 112.429688 167.324219 " clip-rule="nonzero"/></clipPath></defs><g clip-path="url(#c40dab2a66)"><path fill="#52a799" d="M 1209.191406 639.304688 C 1225.175781 629.339844 1236.734375 614.230469 1243.613281 596.828125 C 1258.046875 560.332031 1252.789062 519.109375 1246.238281 481.539062 C 1239.105469 440.617188 1229.90625 392.679688 1251.1875 354.308594 C 1261.90625 334.992188 1279.890625 322.105469 1295.960938 307.589844 C 1312.09375 293.019531 1324.488281 276.027344 1330.023438 254.75 C 1341.289062 211.4375 1325.402344 167.152344 1299.175781 132.613281 C 1291.523438 122.671875 1283.222656 113.308594 1274.273438 104.511719 C 1272.523438 92.78125 1271.386719 80.996094 1269.75 70.042969 C 1267.023438 51.820312 1263.078125 33.421875 1254.132812 17.121094 C 1251.957031 13.226562 1249.523438 9.503906 1246.820312 5.953125 C 1244.121094 2.402344 1241.1875 -0.941406 1238.015625 -4.074219 C 1234.839844 -7.210938 1231.464844 -10.109375 1227.882812 -12.765625 C 1224.300781 -15.425781 1220.550781 -17.816406 1216.628906 -19.945312 C 1183.988281 -37.882812 1144.179688 -38.960938 1108.210938 -33.054688 C 1099.117188 -31.554688 1090.140625 -29.535156 1081.277344 -26.996094 C 1068.785156 -23.425781 1056.195312 -19.0625 1043.128906 -18.292969 C 1017.746094 -16.800781 994.984375 -32.089844 972.617188 -41.929688 C 949.628906 -52.066406 926.101562 -60.738281 902.035156 -67.941406 C 877.964844 -75.148438 853.542969 -80.828125 828.765625 -84.980469 C 781.710938 -92.816406 732.589844 -95.59375 685.984375 -83.515625 C 643.714844 -72.566406 605.851562 -48.445312 581.664062 -11.621094 C 575.972656 -3.089844 571.304688 5.972656 567.667969 15.566406 C 564.03125 25.15625 561.511719 35.035156 560.113281 45.199219 C 557.34375 66.640625 561.210938 87.933594 569.355469 107.839844 C 578.171875 129.398438 590.71875 149.039062 601.769531 169.464844 C 613.058594 190.441406 621.5625 212.488281 627.277344 235.613281 C 639.125 282.839844 641.5625 331.71875 649.007812 379.695312 C 655.296875 420.226562 666.421875 459.730469 687.792969 495.066406 C 706.972656 526.773438 734.398438 554.90625 770 567.355469 C 790.269531 574.441406 811.742188 575.28125 832.902344 572.527344 C 857.179688 569.371094 880.757812 562.390625 905.007812 559.078125 C 910.707031 558.226562 916.433594 557.730469 922.195312 557.589844 C 927.957031 557.449219 933.703125 557.667969 939.4375 558.246094 C 945.171875 558.820312 950.847656 559.75 956.464844 561.035156 C 962.085938 562.316406 967.601562 563.945312 973.015625 565.917969 C 994.046875 573.6875 1013.253906 585.753906 1031.933594 597.980469 C 1050.636719 610.222656 1068.984375 623.285156 1089.121094 633.121094 C 1108.34375 642.511719 1128.945312 649.488281 1150.320312 651.546875 C 1170.613281 653.503906 1191.703125 650.214844 1209.191406 639.304688 Z M 1209.191406 639.304688 " fill-opacity="1" fill-rule="nonzero"/></g><g clip-path="url(#7d371c0846)"><path fill="#b3debf" d="M 1226.285156 626.808594 C 1242.269531 616.839844 1253.824219 601.730469 1260.707031 584.328125 C 1275.136719 547.832031 1269.882812 506.609375 1263.332031 469.039062 C 1256.199219 428.117188 1247 380.179688 1268.28125 341.8125 C 1278.996094 322.492188 1296.984375 309.605469 1313.054688 295.089844 C 1329.1875 280.519531 1341.582031 263.527344 1347.113281 242.25 C 1358.378906 198.9375 1342.496094 154.652344 1316.269531 120.113281 C 1308.613281 110.175781 1300.3125 100.808594 1291.367188 92.011719 C 1289.617188 80.28125 1288.480469 68.496094 1286.84375 57.542969 C 1284.117188 39.320312 1280.171875 20.921875 1271.226562 4.625 C 1269.050781 0.726562 1266.613281 -2.996094 1263.914062 -6.542969 C 1261.214844 -10.09375 1258.277344 -13.4375 1255.105469 -16.574219 C 1251.933594 -19.710938 1248.558594 -22.605469 1244.976562 -25.265625 C 1241.394531 -27.921875 1237.644531 -30.316406 1233.722656 -32.445312 C 1201.082031 -50.382812 1161.273438 -51.457031 1125.304688 -45.554688 C 1116.210938 -44.050781 1107.230469 -42.03125 1098.371094 -39.492188 C 1085.878906 -35.925781 1073.289062 -31.5625 1060.222656 -30.792969 C 1034.839844 -29.300781 1012.078125 -44.589844 989.710938 -54.425781 C 966.722656 -64.566406 943.195312 -73.238281 919.128906 -80.441406 C 895.058594 -87.644531 870.636719 -93.324219 845.859375 -97.480469 C 798.804688 -105.3125 749.683594 -108.09375 703.074219 -96.015625 C 660.808594 -85.0625 622.945312 -60.941406 598.757812 -24.121094 C 593.0625 -15.585938 588.398438 -6.523438 584.761719 3.066406 C 581.125 12.660156 578.605469 22.535156 577.207031 32.699219 C 574.4375 54.140625 578.300781 75.4375 586.445312 95.34375 C 595.265625 116.898438 607.8125 136.542969 618.863281 156.964844 C 630.152344 177.941406 638.65625 199.992188 644.371094 223.117188 C 656.214844 270.339844 658.652344 319.21875 666.101562 367.195312 C 672.390625 407.726562 683.511719 447.230469 704.886719 482.570312 C 724.0625 514.273438 751.492188 542.410156 787.089844 554.855469 C 807.359375 561.945312 828.835938 562.78125 849.996094 560.027344 C 874.273438 556.871094 897.851562 549.890625 922.097656 546.578125 C 927.796875 545.726562 933.527344 545.230469 939.289062 545.089844 C 945.050781 544.949219 950.796875 545.167969 956.53125 545.746094 C 962.265625 546.320312 967.941406 547.25 973.558594 548.535156 C 979.175781 549.820312 984.695312 551.445312 990.109375 553.417969 C 1011.140625 561.1875 1030.347656 573.253906 1049.023438 585.480469 C 1067.726562 597.722656 1086.078125 610.785156 1106.214844 620.625 C 1125.4375 630.011719 1146.039062 636.988281 1167.414062 639.050781 C 1187.707031 641.003906 1208.796875 637.714844 1226.285156 626.808594 Z M 1226.285156 626.808594 " fill-opacity="1" fill-rule="nonzero"/></g><g clip-path="url(#0247f61657)"><path fill="#ed8d59" d="M 402.898438 177.03125 L 395.371094 179.203125 L 393.199219 186.734375 L 391.027344 179.203125 L 386.621094 177.9375 C 380.242188 178.6875 376.082031 180.28125 371.75 181.941406 C 365.886719 184.191406 359.824219 186.515625 347.886719 186.515625 C 335.949219 186.515625 329.882812 184.191406 324.019531 181.941406 C 318.046875 179.652344 312.40625 177.484375 300.804688 177.484375 C 289.199219 177.484375 283.558594 179.648438 277.585938 181.941406 C 271.722656 184.191406 265.65625 186.515625 253.71875 186.515625 C 241.785156 186.515625 235.71875 184.191406 229.855469 181.941406 C 223.886719 179.652344 218.246094 177.484375 206.636719 177.484375 C 195.03125 177.484375 189.394531 179.648438 183.417969 181.941406 C 177.558594 184.191406 171.492188 186.515625 159.554688 186.515625 C 147.617188 186.515625 141.550781 184.191406 135.691406 181.941406 C 129.71875 179.652344 124.078125 177.484375 112.472656 177.484375 L 112.472656 175.675781 C 124.410156 175.675781 130.472656 178.003906 136.335938 180.253906 C 142.308594 182.542969 147.949219 184.710938 159.554688 184.710938 C 171.15625 184.710938 176.796875 182.546875 182.773438 180.253906 C 188.636719 178.003906 194.699219 175.675781 206.636719 175.675781 C 218.574219 175.675781 224.640625 178.003906 230.5 180.253906 C 236.472656 182.542969 242.113281 184.710938 253.71875 184.710938 C 265.328125 184.710938 270.964844 182.546875 276.9375 180.253906 C 282.800781 178.003906 288.867188 175.675781 300.804688 175.675781 C 312.738281 175.675781 318.804688 178.003906 324.667969 180.253906 C 330.640625 182.542969 336.285156 184.710938 347.886719 184.710938 C 359.488281 184.710938 365.128906 182.546875 371.105469 180.253906 C 375.425781 178.59375 379.859375 176.898438 386.671875 176.117188 L 391.03125 174.859375 L 393.203125 167.332031 L 395.375 174.859375 Z M 402.898438 177.03125 " fill-opacity="1" fill-rule="nonzero"/></g></svg>