<svg xmlns="http://www.w3.org/2000/svg" xmlns:xlink="http://www.w3.org/1999/xlink" width="1366" zoomAndPan="magnify" viewBox="0 0 1024.5 576" height="768" preserveAspectRatio="xMidYMid meet" version="1.0"><defs><clipPath id="2b1ee301a8"><path d="M 0 0.140625 L 1024 0.140625 L 1024 575.859375 L 0 575.859375 Z M 0 0.140625 " clip-rule="nonzero"/></clipPath><clipPath id="3e18932741"><path d="M 576 0.140625 L 1024 0.140625 L 1024 575.859375 L 576 575.859375 Z M 576 0.140625 " clip-rule="nonzero"/></clipPath></defs><g clip-path="url(#2b1ee301a8)"><path fill="#ffffff" d="M 0 0.140625 L 1024 0.140625 L 1024 575.859375 L 0 575.859375 Z M 0 0.140625 " fill-opacity="1" fill-rule="nonzero"/><path fill="#ffffff" d="M 0 0.140625 L 1024 0.140625 L 1024 575.859375 L 0 575.859375 Z M 0 0.140625 " fill-opacity="1" fill-rule="nonzero"/></g><g clip-path="url(#3e18932741)"><path fill="#b3debf" d="M 1226.285156 626.808594 C 1242.269531 616.839844 1253.824219 601.730469 1260.707031 584.328125 C 1275.136719 547.832031 1269.882812 506.609375 1263.332031 469.039062 C 1256.199219 428.117188 1247 380.179688 1268.28125 341.8125 C 1278.996094 322.492188 1296.984375 309.605469 1313.054688 295.089844 C 1329.1875 280.519531 1341.582031 263.527344 1347.113281 242.25 C 1358.378906 198.9375 1342.496094 154.652344 1316.269531 120.113281 C 1308.613281 110.175781 1300.3125 100.808594 1291.367188 92.011719 C 1289.617188 80.28125 1288.480469 68.496094 1286.84375 57.542969 C 1284.117188 39.320312 1280.171875 20.921875 1271.226562 4.625 C 1269.050781 0.726562 1266.613281 -2.996094 1263.914062 -6.542969 C 1261.214844 -10.09375 1258.277344 -13.4375 1255.105469 -16.574219 C 1251.933594 -19.710938 1248.558594 -22.605469 1244.976562 -25.265625 C 1241.394531 -27.921875 1237.644531 -30.316406 1233.722656 -32.445312 C 1201.082031 -50.382812 1161.273438 -51.457031 1125.304688 -45.554688 C 1116.210938 -44.050781 1107.230469 -42.03125 1098.371094 -39.492188 C 1085.878906 -35.925781 1073.289062 -31.5625 1060.222656 -30.792969 C 1034.839844 -29.300781 1012.078125 -44.589844 989.710938 -54.425781 C 966.722656 -64.566406 943.195312 -73.238281 919.128906 -80.441406 C 895.058594 -87.644531 870.636719 -93.324219 845.859375 -97.480469 C 798.804688 -105.3125 749.683594 -108.09375 703.074219 -96.015625 C 660.808594 -85.0625 622.945312 -60.941406 598.757812 -24.121094 C 593.0625 -15.585938 588.398438 -6.523438 584.761719 3.066406 C 581.125 12.660156 578.605469 22.535156 577.207031 32.699219 C 574.4375 54.140625 578.300781 75.4375 586.445312 95.34375 C 595.265625 116.898438 607.8125 136.542969 618.863281 156.964844 C 630.152344 177.941406 638.65625 199.992188 644.371094 223.117188 C 656.214844 270.339844 658.652344 319.21875 666.101562 367.195312 C 672.390625 407.726562 683.511719 447.230469 704.886719 482.570312 C 724.0625 514.273438 751.492188 542.410156 787.089844 554.855469 C 807.359375 561.945312 828.835938 562.78125 849.996094 560.027344 C 874.273438 556.871094 897.851562 549.890625 922.097656 546.578125 C 927.796875 545.726562 933.527344 545.230469 939.289062 545.089844 C 945.050781 544.949219 950.796875 545.167969 956.53125 545.746094 C 962.265625 546.320312 967.941406 547.25 973.558594 548.535156 C 979.175781 549.820312 984.695312 551.445312 990.109375 553.417969 C 1011.140625 561.1875 1030.347656 573.253906 1049.023438 585.480469 C 1067.726562 597.722656 1086.078125 610.785156 1106.214844 620.625 C 1125.4375 630.011719 1146.039062 636.988281 1167.414062 639.050781 C 1187.707031 641.003906 1208.796875 637.714844 1226.285156 626.808594 Z M 1226.285156 626.808594 " fill-opacity="1" fill-rule="nonzero"/></g></svg>